# xmcd CD database file
#
# Track frame offsets:
#	150
#	21319
#	47010
#	67661
#	87923
#	111408
#	137564
#	160968
#	194798
#	219215
#
# Disc length: 3225 seconds
#
# Revision: 0
# Processed by: cddbd v1.5.1PL0 Copyright (c) Steve Scherf et al.
# Submitted via: CDex 1.50
#
DISCID=890c970a
DTITLE=Mm Jazz - Mm Jazz Sample
DYEAR=1900
DGENRE=Jazz
TTITLE0=Fred Hersch - And I Love Her
TTITLE1=Joel Frahm and Brad Mehldau - Mother Nature's Son
TTITLE2=Pete Mccann - Falling Grace
TTITLE3=Kate Mcgarry - Show Me
TTITLE4=Richard Davis - Come Sunday - Warm Valley
TTITLE5=Frank Kimbrough - Kid Stuff
TTITLE6=Ben Allison - Across The Universe
TTITLE7=Marty Ehrlich - Hymn
TTITLE8=Trio 3 - Y2 Chaos
TTITLE9=Pete Mccann - Victim Sweepstakes
EXTD=
EXTT0=
EXTT1=
EXTT2=
EXTT3=
EXTT4=
EXTT5=
EXTT6=
EXTT7=
EXTT8=
EXTT9=
PLAYORDER=
